<mxfile host="app.diagrams.net" modified="2020-12-27T03:45:34.951Z" agent="5.0 (Windows NT 10.0; Win64; x64) AppleWebKit/537.36 (KHTML, like Gecko) Chrome/87.0.4280.88 Safari/537.36" etag="e49VUBkt7b73kcMqAUyy" version="14.1.2" type="github">
  <diagram id="C5RBs43oDa-KdzZeNtuy" name="Page-1">
    <mxGraphModel dx="3499" dy="1270" grid="1" gridSize="10" guides="1" tooltips="1" connect="1" arrows="1" fold="1" page="1" pageScale="1" pageWidth="827" pageHeight="1169" math="0" shadow="0">
      <root>
        <mxCell id="WIyWlLk6GJQsqaUBKTNV-0" />
        <mxCell id="WIyWlLk6GJQsqaUBKTNV-1" parent="WIyWlLk6GJQsqaUBKTNV-0" />
        <mxCell id="WIyWlLk6GJQsqaUBKTNV-2" value="" style="rounded=0;html=1;jettySize=auto;orthogonalLoop=1;fontSize=11;endArrow=block;endFill=0;endSize=8;strokeWidth=1;shadow=0;labelBackgroundColor=none;edgeStyle=orthogonalEdgeStyle;" parent="WIyWlLk6GJQsqaUBKTNV-1" source="WIyWlLk6GJQsqaUBKTNV-3" target="WIyWlLk6GJQsqaUBKTNV-6" edge="1">
          <mxGeometry relative="1" as="geometry" />
        </mxCell>
        <mxCell id="Ol6jNC3CPkE-fM7mIbbv-4" value="" style="edgeStyle=orthogonalEdgeStyle;rounded=0;orthogonalLoop=1;jettySize=auto;html=1;entryX=0.5;entryY=0;entryDx=0;entryDy=0;" edge="1" parent="WIyWlLk6GJQsqaUBKTNV-1" source="WIyWlLk6GJQsqaUBKTNV-3" target="WIyWlLk6GJQsqaUBKTNV-7">
          <mxGeometry relative="1" as="geometry">
            <mxPoint x="360" y="100" as="targetPoint" />
          </mxGeometry>
        </mxCell>
        <mxCell id="WIyWlLk6GJQsqaUBKTNV-3" value="JAVAWEB服装销售" style="rounded=1;whiteSpace=wrap;html=1;fontSize=12;glass=0;strokeWidth=1;shadow=0;" parent="WIyWlLk6GJQsqaUBKTNV-1" vertex="1">
          <mxGeometry x="160" y="80" width="120" height="40" as="geometry" />
        </mxCell>
        <mxCell id="Ol6jNC3CPkE-fM7mIbbv-1" value="" style="edgeStyle=orthogonalEdgeStyle;rounded=0;orthogonalLoop=1;jettySize=auto;html=1;" edge="1" parent="WIyWlLk6GJQsqaUBKTNV-1" source="WIyWlLk6GJQsqaUBKTNV-6" target="Ol6jNC3CPkE-fM7mIbbv-0">
          <mxGeometry relative="1" as="geometry" />
        </mxCell>
        <mxCell id="Ol6jNC3CPkE-fM7mIbbv-2" value="" style="edgeStyle=orthogonalEdgeStyle;rounded=0;orthogonalLoop=1;jettySize=auto;html=1;" edge="1" parent="WIyWlLk6GJQsqaUBKTNV-1" source="WIyWlLk6GJQsqaUBKTNV-6" target="WIyWlLk6GJQsqaUBKTNV-7">
          <mxGeometry relative="1" as="geometry" />
        </mxCell>
        <mxCell id="WIyWlLk6GJQsqaUBKTNV-6" value="用户登录" style="rhombus;whiteSpace=wrap;html=1;shadow=0;fontFamily=Helvetica;fontSize=12;align=center;strokeWidth=1;spacing=6;spacingTop=-4;" parent="WIyWlLk6GJQsqaUBKTNV-1" vertex="1">
          <mxGeometry x="170" y="170" width="100" height="80" as="geometry" />
        </mxCell>
        <mxCell id="Ol6jNC3CPkE-fM7mIbbv-12" value="" style="edgeStyle=orthogonalEdgeStyle;rounded=0;orthogonalLoop=1;jettySize=auto;html=1;" edge="1" parent="WIyWlLk6GJQsqaUBKTNV-1" source="WIyWlLk6GJQsqaUBKTNV-7" target="Ol6jNC3CPkE-fM7mIbbv-11">
          <mxGeometry relative="1" as="geometry" />
        </mxCell>
        <mxCell id="WIyWlLk6GJQsqaUBKTNV-7" value="买家" style="rounded=1;whiteSpace=wrap;html=1;fontSize=12;glass=0;strokeWidth=1;shadow=0;" parent="WIyWlLk6GJQsqaUBKTNV-1" vertex="1">
          <mxGeometry x="320" y="190" width="120" height="40" as="geometry" />
        </mxCell>
        <mxCell id="Ol6jNC3CPkE-fM7mIbbv-6" value="" style="edgeStyle=orthogonalEdgeStyle;rounded=0;orthogonalLoop=1;jettySize=auto;html=1;" edge="1" parent="WIyWlLk6GJQsqaUBKTNV-1" source="Ol6jNC3CPkE-fM7mIbbv-0" target="Ol6jNC3CPkE-fM7mIbbv-5">
          <mxGeometry relative="1" as="geometry">
            <Array as="points">
              <mxPoint x="20" y="280" />
              <mxPoint x="-140" y="280" />
            </Array>
          </mxGeometry>
        </mxCell>
        <mxCell id="Ol6jNC3CPkE-fM7mIbbv-0" value="卖家" style="whiteSpace=wrap;html=1;shadow=0;strokeWidth=1;spacing=6;spacingTop=-4;" vertex="1" parent="WIyWlLk6GJQsqaUBKTNV-1">
          <mxGeometry x="-40" y="180" width="120" height="60" as="geometry" />
        </mxCell>
        <mxCell id="Ol6jNC3CPkE-fM7mIbbv-5" value="库存管理" style="whiteSpace=wrap;html=1;shadow=0;strokeWidth=1;spacing=6;spacingTop=-4;" vertex="1" parent="WIyWlLk6GJQsqaUBKTNV-1">
          <mxGeometry x="-200" y="340" width="120" height="60" as="geometry" />
        </mxCell>
        <mxCell id="Ol6jNC3CPkE-fM7mIbbv-8" value="" style="edgeStyle=orthogonalEdgeStyle;rounded=0;orthogonalLoop=1;jettySize=auto;html=1;" edge="1" parent="WIyWlLk6GJQsqaUBKTNV-1" source="Ol6jNC3CPkE-fM7mIbbv-7" target="Ol6jNC3CPkE-fM7mIbbv-0">
          <mxGeometry relative="1" as="geometry">
            <Array as="points">
              <mxPoint x="20" y="260" />
              <mxPoint x="20" y="260" />
            </Array>
          </mxGeometry>
        </mxCell>
        <mxCell id="Ol6jNC3CPkE-fM7mIbbv-7" value="订单" style="rounded=1;whiteSpace=wrap;html=1;" vertex="1" parent="WIyWlLk6GJQsqaUBKTNV-1">
          <mxGeometry x="-40" y="340" width="120" height="60" as="geometry" />
        </mxCell>
        <mxCell id="Ol6jNC3CPkE-fM7mIbbv-10" value="" style="edgeStyle=orthogonalEdgeStyle;rounded=0;orthogonalLoop=1;jettySize=auto;html=1;" edge="1" parent="WIyWlLk6GJQsqaUBKTNV-1" source="Ol6jNC3CPkE-fM7mIbbv-9" target="Ol6jNC3CPkE-fM7mIbbv-0">
          <mxGeometry relative="1" as="geometry">
            <mxPoint x="40" y="243" as="targetPoint" />
            <Array as="points">
              <mxPoint x="170" y="280" />
              <mxPoint x="20" y="280" />
            </Array>
          </mxGeometry>
        </mxCell>
        <mxCell id="Ol6jNC3CPkE-fM7mIbbv-9" value="商品管理" style="rounded=1;whiteSpace=wrap;html=1;" vertex="1" parent="WIyWlLk6GJQsqaUBKTNV-1">
          <mxGeometry x="90" y="340" width="120" height="60" as="geometry" />
        </mxCell>
        <mxCell id="Ol6jNC3CPkE-fM7mIbbv-14" value="" style="edgeStyle=orthogonalEdgeStyle;rounded=0;orthogonalLoop=1;jettySize=auto;html=1;" edge="1" parent="WIyWlLk6GJQsqaUBKTNV-1" source="Ol6jNC3CPkE-fM7mIbbv-11" target="Ol6jNC3CPkE-fM7mIbbv-13">
          <mxGeometry relative="1" as="geometry" />
        </mxCell>
        <mxCell id="Ol6jNC3CPkE-fM7mIbbv-11" value="浏览商品" style="whiteSpace=wrap;html=1;rounded=1;shadow=0;strokeWidth=1;glass=0;" vertex="1" parent="WIyWlLk6GJQsqaUBKTNV-1">
          <mxGeometry x="320" y="300" width="120" height="60" as="geometry" />
        </mxCell>
        <mxCell id="Ol6jNC3CPkE-fM7mIbbv-16" value="" style="edgeStyle=orthogonalEdgeStyle;rounded=0;orthogonalLoop=1;jettySize=auto;html=1;entryX=1;entryY=0.5;entryDx=0;entryDy=0;" edge="1" parent="WIyWlLk6GJQsqaUBKTNV-1" source="Ol6jNC3CPkE-fM7mIbbv-13" target="Ol6jNC3CPkE-fM7mIbbv-17">
          <mxGeometry relative="1" as="geometry">
            <mxPoint x="280" y="470" as="targetPoint" />
          </mxGeometry>
        </mxCell>
        <mxCell id="Ol6jNC3CPkE-fM7mIbbv-38" value="" style="edgeStyle=orthogonalEdgeStyle;rounded=0;orthogonalLoop=1;jettySize=auto;html=1;entryX=1;entryY=0.5;entryDx=0;entryDy=0;" edge="1" parent="WIyWlLk6GJQsqaUBKTNV-1" target="Ol6jNC3CPkE-fM7mIbbv-28">
          <mxGeometry relative="1" as="geometry">
            <mxPoint x="220" y="560" as="sourcePoint" />
            <mxPoint x="380" y="750" as="targetPoint" />
            <Array as="points">
              <mxPoint x="220" y="510" />
              <mxPoint x="400" y="510" />
              <mxPoint x="400" y="750" />
              <mxPoint x="280" y="750" />
            </Array>
          </mxGeometry>
        </mxCell>
        <mxCell id="Ol6jNC3CPkE-fM7mIbbv-13" value="商品详情" style="whiteSpace=wrap;html=1;rounded=1;shadow=0;strokeWidth=1;glass=0;" vertex="1" parent="WIyWlLk6GJQsqaUBKTNV-1">
          <mxGeometry x="320" y="440" width="120" height="60" as="geometry" />
        </mxCell>
        <mxCell id="Ol6jNC3CPkE-fM7mIbbv-19" value="" style="edgeStyle=orthogonalEdgeStyle;rounded=0;orthogonalLoop=1;jettySize=auto;html=1;" edge="1" parent="WIyWlLk6GJQsqaUBKTNV-1" source="Ol6jNC3CPkE-fM7mIbbv-17" target="Ol6jNC3CPkE-fM7mIbbv-18">
          <mxGeometry relative="1" as="geometry" />
        </mxCell>
        <mxCell id="Ol6jNC3CPkE-fM7mIbbv-26" value="" style="edgeStyle=orthogonalEdgeStyle;rounded=0;orthogonalLoop=1;jettySize=auto;html=1;entryX=0.5;entryY=1;entryDx=0;entryDy=0;" edge="1" parent="WIyWlLk6GJQsqaUBKTNV-1" source="Ol6jNC3CPkE-fM7mIbbv-17" target="WIyWlLk6GJQsqaUBKTNV-6">
          <mxGeometry relative="1" as="geometry">
            <mxPoint x="130" y="250" as="targetPoint" />
            <Array as="points">
              <mxPoint x="220" y="270" />
              <mxPoint x="220" y="270" />
            </Array>
          </mxGeometry>
        </mxCell>
        <mxCell id="Ol6jNC3CPkE-fM7mIbbv-17" value="是否登录" style="rhombus;whiteSpace=wrap;html=1;" vertex="1" parent="WIyWlLk6GJQsqaUBKTNV-1">
          <mxGeometry x="180" y="430" width="80" height="80" as="geometry" />
        </mxCell>
        <mxCell id="Ol6jNC3CPkE-fM7mIbbv-29" value="" style="edgeStyle=orthogonalEdgeStyle;rounded=0;orthogonalLoop=1;jettySize=auto;html=1;" edge="1" parent="WIyWlLk6GJQsqaUBKTNV-1" source="Ol6jNC3CPkE-fM7mIbbv-18" target="Ol6jNC3CPkE-fM7mIbbv-28">
          <mxGeometry relative="1" as="geometry" />
        </mxCell>
        <mxCell id="Ol6jNC3CPkE-fM7mIbbv-18" value="加购物车" style="whiteSpace=wrap;html=1;" vertex="1" parent="WIyWlLk6GJQsqaUBKTNV-1">
          <mxGeometry x="160" y="585" width="120" height="60" as="geometry" />
        </mxCell>
        <mxCell id="Ol6jNC3CPkE-fM7mIbbv-20" value="已经登录" style="text;html=1;align=center;verticalAlign=middle;resizable=0;points=[];autosize=1;" vertex="1" parent="WIyWlLk6GJQsqaUBKTNV-1">
          <mxGeometry x="215" y="530" width="60" height="20" as="geometry" />
        </mxCell>
        <mxCell id="Ol6jNC3CPkE-fM7mIbbv-27" value="未登录" style="text;html=1;align=center;verticalAlign=middle;resizable=0;points=[];autosize=1;" vertex="1" parent="WIyWlLk6GJQsqaUBKTNV-1">
          <mxGeometry x="220" y="350" width="50" height="20" as="geometry" />
        </mxCell>
        <mxCell id="Ol6jNC3CPkE-fM7mIbbv-31" value="" style="edgeStyle=orthogonalEdgeStyle;rounded=0;orthogonalLoop=1;jettySize=auto;html=1;" edge="1" parent="WIyWlLk6GJQsqaUBKTNV-1" source="Ol6jNC3CPkE-fM7mIbbv-28">
          <mxGeometry relative="1" as="geometry">
            <mxPoint x="220" y="865" as="targetPoint" />
          </mxGeometry>
        </mxCell>
        <mxCell id="Ol6jNC3CPkE-fM7mIbbv-28" value="购买商品" style="whiteSpace=wrap;html=1;" vertex="1" parent="WIyWlLk6GJQsqaUBKTNV-1">
          <mxGeometry x="160" y="725" width="120" height="60" as="geometry" />
        </mxCell>
        <mxCell id="Ol6jNC3CPkE-fM7mIbbv-33" value="完成购买" style="ellipse;whiteSpace=wrap;html=1;" vertex="1" parent="WIyWlLk6GJQsqaUBKTNV-1">
          <mxGeometry x="160" y="860" width="120" height="80" as="geometry" />
        </mxCell>
      </root>
    </mxGraphModel>
  </diagram>
</mxfile>
